solid 3D_02
facet normal -2.22044743541557e-16 1.1347516636933e-23 -1.0
outer loop
vertex -427.58065470264 164.286910468797 22.1120741668425
vertex -423.580662665821 145.226168936948 22.1120741668425
vertex -427.58065470264 128.286982137422 22.1120741668425
endloop
endfacet
facet normal -2.22044743541557e-16 1.1347516636933e-23 -1.0
outer loop
vertex -423.580662665821 145.226168936948 22.1120741668425
vertex -427.58065470264 164.286910468797 22.1120741668425
vertex -408.580692527748 164.286910468797 22.1120741668425
endloop
endfacet
facet normal -2.22044743541557e-16 1.1347516636933e-23 -1.0
outer loop
vertex -423.580662665821 145.226168936948 22.1120741668425
vertex -408.580692527748 164.286910468797 22.1120741668425
vertex -412.580684564567 145.226168936948 22.1120741668425
endloop
endfacet
facet normal -2.22044743541557e-16 1.1347516636933e-23 -1.0
outer loop
vertex -412.580684564567 145.226168936948 22.1120741668425
vertex -408.580692527748 164.286910468797 22.1120741668425
vertex -412.580684564567 128.286982137422 22.1120741668425
endloop
endfacet
facet normal -2.22044743541557e-16 1.1347516636933e-23 -1.0
outer loop
vertex -412.580684564567 128.286982137422 22.1120741668425
vertex -408.580692527748 164.286910468797 22.1120741668425
vertex -408.580692527748 128.286982137422 22.1120741668425
endloop
endfacet
facet normal -2.22044743541557e-16 1.1347516636933e-23 -1.0
outer loop
vertex -423.580662665821 128.286982137422 22.1120741668425
vertex -427.58065470264 128.286982137422 22.1120741668425
vertex -423.580662665821 145.226168936948 22.1120741668425
endloop
endfacet
facet normal 0.0 -1.0 0.0
outer loop
vertex -408.580692527748 128.286982137422 30.1120582404814
vertex -412.580684564567 128.286982137422 22.1120741668425
vertex -408.580692527748 128.286982137422 22.1120741668425
endloop
endfacet
facet normal 0.0 -1.0 0.0
outer loop
vertex -412.580684564567 128.286982137422 22.1120741668425
vertex -408.580692527748 128.286982137422 30.1120582404814
vertex -412.580684564567 128.286982137422 30.1120582404814
endloop
endfacet
facet normal 1.0 4.29015908079761e-23 -2.22045038678314e-16
outer loop
vertex -408.580692527748 133.786971188049 30.1120582404814
vertex -408.580692527748 134.372449963252 37.8795422735892
vertex -408.580692527748 132.569193351726 37.1956435504637
endloop
endfacet
facet normal 1.0 4.29015908079761e-23 -2.22045038678314e-16
outer loop
vertex -408.580692527748 134.372449963252 37.8795422735892
vertex -408.580692527748 133.786971188049 30.1120582404814
vertex -408.580692527748 134.519199613194 31.8798244598589
endloop
endfacet
facet normal 1.0 4.29015908079761e-23 -2.22045038678314e-16
outer loop
vertex -408.580692527748 134.372449963252 37.8795422735892
vertex -408.580692527748 134.519199613194 31.8798244598589
vertex -408.580692527748 136.286966211061 38.1120423141203
endloop
endfacet
facet normal 1.0 4.29015908079761e-23 -2.22045038678314e-16
outer loop
vertex -408.580692527748 136.286966211061 38.1120423141203
vertex -408.580692527748 134.519199613194 31.8798244598589
vertex -408.580692527748 136.286966211061 32.6120532634936
endloop
endfacet
facet normal 1.0 4.29015908079761e-23 -2.22045038678314e-16
outer loop
vertex -408.580692527748 136.286966211061 38.1120423141203
vertex -408.580692527748 136.286966211061 32.6120532634936
vertex -408.580692527748 138.054732808928 31.8798244598589
endloop
endfacet
facet normal 1.0 4.29015908079761e-23 -2.22045038678314e-16
outer loop
vertex -408.580692527748 136.286966211061 38.1120423141203
vertex -408.580692527748 138.054732808928 31.8798244598589
vertex -408.580692527748 156.286926395158 38.1120423141203
endloop
endfacet
facet normal 1.0 4.29015908079761e-23 -2.22045038678314e-16
outer loop
vertex -408.580692527748 156.286926395158 38.1120423141203
vertex -408.580692527748 138.054732808928 31.8798244598589
vertex -408.580692527748 138.786961234073 30.1120582404814
endloop
endfacet
facet normal 1.0 4.29015908079761e-23 -2.22045038678314e-16
outer loop
vertex -408.580692527748 156.286926395158 38.1120423141203
vertex -408.580692527748 138.786961234073 30.1120582404814
vertex -408.580692527748 152.942732507448 33.1231518510066
endloop
endfacet
facet normal 1.0 4.29015908079761e-23 -2.22045038678314e-16
outer loop
vertex -408.580692527748 152.942732507448 33.1231518510066
vertex -408.580692527748 138.786961234073 30.1120582404814
vertex -408.580692527748 152.007135242681 31.5026354554377
endloop
endfacet
facet normal 1.0 4.29015908079761e-23 -2.22045038678314e-16
outer loop
vertex -408.580692527748 152.007135242681 31.5026354554377
vertex -408.580692527748 138.786961234073 30.1120582404814
vertex -408.580692527748 151.811634821157 29.6416790667258
endloop
endfacet
facet normal 1.0 4.29015908079761e-23 -2.22045038678314e-16
outer loop
vertex -408.580692527748 156.286926395158 38.1120423141203
vertex -408.580692527748 152.942732507448 33.1231518510066
vertex -408.580692527748 154.456629926424 34.2230498913012
endloop
endfacet
facet normal 1.0 4.29015908079761e-23 -2.22045038678314e-16
outer loop
vertex -408.580692527748 156.286926395158 38.1120423141203
vertex -408.580692527748 154.456629926424 34.2230498913012
vertex -408.580692527748 156.286926395158 34.6120492819033
endloop
endfacet
facet normal 1.0 4.29015908079761e-23 -2.22045038678314e-16
outer loop
vertex -408.580692527748 156.286926395158 38.1120423141203
vertex -408.580692527748 156.286926395158 34.6120492819033
vertex -408.580692527748 158.117222863893 34.2230498913012
endloop
endfacet
facet normal 1.0 4.29015908079761e-23 -2.22045038678314e-16
outer loop
vertex -408.580692527748 156.286926395158 38.1120423141203
vertex -408.580692527748 158.117222863893 34.2230498913012
vertex -408.580692527748 158.2014216368 37.8795422735892
endloop
endfacet
facet normal 1.0 4.29015908079761e-23 -2.22045038678314e-16
outer loop
vertex -408.580692527748 158.2014216368 37.8795422735892
vertex -408.580692527748 158.117222863893 34.2230498913012
vertex -408.580692527748 159.631120282869 33.1231518510066
endloop
endfacet
facet normal 1.0 4.29015908079761e-23 -2.22045038678314e-16
outer loop
vertex -408.580692527748 158.2014216368 37.8795422735892
vertex -408.580692527748 159.631120282869 33.1231518510066
vertex -408.580692527748 160.004719692926 37.1956435504637
endloop
endfacet
facet normal 1.0 4.29015908079761e-23 -2.22045038678314e-16
outer loop
vertex -408.580692527748 160.004719692926 37.1956435504637
vertex -408.580692527748 159.631120282869 33.1231518510066
vertex -408.580692527748 160.566717547636 31.5026354554377
endloop
endfacet
facet normal 1.0 4.29015908079761e-23 -2.22045038678314e-16
outer loop
vertex -408.580692527748 160.004719692926 37.1956435504637
vertex -408.580692527748 160.566717547636 31.5026354554377
vertex -408.580692527748 161.591915387373 36.1001465860091
endloop
endfacet
facet normal 1.0 4.29015908079761e-23 -2.22045038678314e-16
outer loop
vertex -408.580692527748 161.591915387373 36.1001465860091
vertex -408.580692527748 160.566717547636 31.5026354554377
vertex -408.580692527748 160.76221796916 29.6416790667258
endloop
endfacet
facet normal 1.0 4.29015908079761e-23 -2.22045038678314e-16
outer loop
vertex -408.580692527748 128.286982137422 22.1120741668425
vertex -408.580692527748 136.286966211061 27.6120632174693
vertex -408.580692527748 128.286982137422 30.1120582404814
endloop
endfacet
facet normal 1.0 4.29015908079761e-23 -2.22045038678314e-16
outer loop
vertex -408.580692527748 136.286966211061 27.6120632174693
vertex -408.580692527748 128.286982137422 22.1120741668425
vertex -408.580692527748 164.286910468797 22.1120741668425
endloop
endfacet
facet normal 1.0 4.29015908079761e-23 -2.22045038678314e-16
outer loop
vertex -408.580692527748 128.286982137422 30.1120582404814
vertex -408.580692527748 136.286966211061 27.6120632174693
vertex -408.580692527748 128.345311910371 30.1120582404814
endloop
endfacet
facet normal 1.0 4.29015908079761e-23 -2.22045038678314e-16
outer loop
vertex -408.580692527748 128.345311910371 30.1120582404814
vertex -408.580692527748 136.286966211061 27.6120632174693
vertex -408.580692527748 134.519199613194 28.3442920211039
endloop
endfacet
facet normal 1.0 4.29015908079761e-23 -2.22045038678314e-16
outer loop
vertex -408.580692527748 128.345311910371 30.1120582404814
vertex -408.580692527748 134.519199613194 28.3442920211039
vertex -408.580692527748 128.345311910371 31.0763457658968
endloop
endfacet
facet normal 1.0 4.29015908079761e-23 -2.22045038678314e-16
outer loop
vertex -408.580692527748 128.345311910371 31.0763457658968
vertex -408.580692527748 134.519199613194 28.3442920211039
vertex -408.580692527748 128.806851083498 32.9488521400176
endloop
endfacet
facet normal 1.0 4.29015908079761e-23 -2.22045038678314e-16
outer loop
vertex -408.580692527748 128.806851083498 32.9488521400176
vertex -408.580692527748 134.519199613194 28.3442920211039
vertex -408.580692527748 129.703109664182 34.6565498057089
endloop
endfacet
facet normal 1.0 4.29015908079761e-23 -2.22045038678314e-16
outer loop
vertex -408.580692527748 129.703109664182 34.6565498057089
vertex -408.580692527748 134.519199613194 28.3442920211039
vertex -408.580692527748 130.981996900301 36.1001465860091
endloop
endfacet
facet normal 1.0 4.29015908079761e-23 -2.22045038678314e-16
outer loop
vertex -408.580692527748 130.981996900301 36.1001465860091
vertex -408.580692527748 134.519199613194 28.3442920211039
vertex -408.580692527748 133.786971188049 30.1120582404814
endloop
endfacet
facet normal 1.0 4.29015908079761e-23 -2.22045038678314e-16
outer loop
vertex -408.580692527748 130.981996900301 36.1001465860091
vertex -408.580692527748 133.786971188049 30.1120582404814
vertex -408.580692527748 132.569193351726 37.1956435504637
endloop
endfacet
facet normal 1.0 4.29015908079761e-23 -2.22045038678314e-16
outer loop
vertex -408.580692527748 136.286966211061 27.6120632174693
vertex -408.580692527748 164.286910468797 22.1120741668425
vertex -408.580692527748 138.054732808928 28.3442920211039
endloop
endfacet
facet normal 1.0 4.29015908079761e-23 -2.22045038678314e-16
outer loop
vertex -408.580692527748 138.054732808928 28.3442920211039
vertex -408.580692527748 164.286910468797 22.1120741668425
vertex -408.580692527748 138.786961234073 30.1120582404814
endloop
endfacet
facet normal 1.0 4.29015908079761e-23 -2.22045038678314e-16
outer loop
vertex -408.580692527748 138.786961234073 30.1120582404814
vertex -408.580692527748 164.286910468797 22.1120741668425
vertex -408.580692527748 155.351327616434 25.7104070964537
endloop
endfacet
facet normal 1.0 4.29015908079761e-23 -2.22045038678314e-16
outer loop
vertex -408.580692527748 138.786961234073 30.1120582404814
vertex -408.580692527748 155.351327616434 25.7104070964537
vertex -408.580692527748 153.641931289892 26.4714851263247
endloop
endfacet
facet normal 1.0 4.29015908079761e-23 -2.22045038678314e-16
outer loop
vertex -408.580692527748 138.786961234073 30.1120582404814
vertex -408.580692527748 153.641931289892 26.4714851263247
vertex -408.580692527748 152.389833540182 27.8620627197705
endloop
endfacet
facet normal 1.0 4.29015908079761e-23 -2.22045038678314e-16
outer loop
vertex -408.580692527748 138.786961234073 30.1120582404814
vertex -408.580692527748 152.389833540182 27.8620627197705
vertex -408.580692527748 151.811634821157 29.6416790667258
endloop
endfacet
facet normal 1.0 4.29015908079761e-23 -2.22045038678314e-16
outer loop
vertex -408.580692527748 155.351327616434 25.7104070964537
vertex -408.580692527748 164.286910468797 22.1120741668425
vertex -408.580692527748 157.222525173883 25.7104070964537
endloop
endfacet
facet normal 1.0 4.29015908079761e-23 -2.22045038678314e-16
outer loop
vertex -408.580692527748 157.222525173883 25.7104070964537
vertex -408.580692527748 164.286910468797 22.1120741668425
vertex -408.580692527748 158.931921500425 26.4714851263247
endloop
endfacet
facet normal 1.0 4.29015908079761e-23 -2.22045038678314e-16
outer loop
vertex -408.580692527748 158.931921500425 26.4714851263247
vertex -408.580692527748 164.286910468797 22.1120741668425
vertex -408.580692527748 160.184019250135 27.8620627197705
endloop
endfacet
facet normal 1.0 4.29015908079761e-23 -2.22045038678314e-16
outer loop
vertex -408.580692527748 160.184019250135 27.8620627197705
vertex -408.580692527748 164.286910468797 22.1120741668425
vertex -408.580692527748 160.76221796916 29.6416790667258
endloop
endfacet
facet normal 1.0 4.29015908079761e-23 -2.22045038678314e-16
outer loop
vertex -408.580692527748 160.76221796916 29.6416790667258
vertex -408.580692527748 164.286910468797 22.1120741668425
vertex -408.580692527748 161.591915387373 36.1001465860091
endloop
endfacet
facet normal 1.0 4.29015908079761e-23 -2.22045038678314e-16
outer loop
vertex -408.580692527748 161.591915387373 36.1001465860091
vertex -408.580692527748 164.286910468797 22.1120741668425
vertex -408.580692527748 162.870814735155 34.6565498057089
endloop
endfacet
facet normal 1.0 4.29015908079761e-23 -2.22045038678314e-16
outer loop
vertex -408.580692527748 162.870814735155 34.6565498057089
vertex -408.580692527748 164.286910468797 22.1120741668425
vertex -408.580692527748 163.767011243562 32.9488521400176
endloop
endfacet
facet normal 1.0 4.29015908079761e-23 -2.22045038678314e-16
outer loop
vertex -408.580692527748 163.767011243562 32.9488521400176
vertex -408.580692527748 164.286910468797 22.1120741668425
vertex -408.580692527748 164.228610975008 30.1120582404814
endloop
endfacet
facet normal 1.0 4.29015908079761e-23 -2.22045038678314e-16
outer loop
vertex -408.580692527748 164.228610975008 30.1120582404814
vertex -408.580692527748 164.286910468797 22.1120741668425
vertex -408.580692527748 164.286910468797 30.1120582404814
endloop
endfacet
facet normal 1.0 4.29015908079761e-23 -2.22045038678314e-16
outer loop
vertex -408.580692527748 164.228610975008 31.0763457658968
vertex -408.580692527748 163.767011243562 32.9488521400176
vertex -408.580692527748 164.228610975008 30.1120582404814
endloop
endfacet
facet normal 0.0 1.0 0.0
outer loop
vertex -427.58065470264 164.286910468797 22.1120741668425
vertex -408.580692527748 164.286910468797 30.1120582404814
vertex -408.580692527748 164.286910468797 22.1120741668425
endloop
endfacet
facet normal 0.0 0.707106781186548 0.707106781186548
outer loop
vertex -408.580692527748 164.286910468797 30.1120582404814
vertex -427.58065470264 164.286910468797 22.1120741668425
vertex -427.58065470264 164.286910468797 30.1120582404814
endloop
endfacet
facet normal -1.0 0.0 0.0
outer loop
vertex -427.58065470264 128.806851083498 32.9488521400176
vertex -427.58065470264 128.345311910371 30.1120582404814
vertex -427.58065470264 128.345311910371 31.0763457658968
endloop
endfacet
facet normal -1.0 0.0 0.0
outer loop
vertex -427.58065470264 134.372449963252 37.8795422735892
vertex -427.58065470264 133.786971188049 30.1120582404814
vertex -427.58065470264 132.569193351726 37.1956435504637
endloop
endfacet
facet normal -1.0 0.0 0.0
outer loop
vertex -427.58065470264 133.786971188049 30.1120582404814
vertex -427.58065470264 134.372449963252 37.8795422735892
vertex -427.58065470264 134.519199613194 31.8798244598589
endloop
endfacet
facet normal -1.0 0.0 0.0
outer loop
vertex -427.58065470264 134.519199613194 31.8798244598589
vertex -427.58065470264 134.372449963252 37.8795422735892
vertex -427.58065470264 136.286966211061 38.1120423141203
endloop
endfacet
facet normal -1.0 0.0 0.0
outer loop
vertex -427.58065470264 134.519199613194 31.8798244598589
vertex -427.58065470264 136.286966211061 38.1120423141203
vertex -427.58065470264 136.286966211061 32.6120532634936
endloop
endfacet
facet normal -1.0 0.0 0.0
outer loop
vertex -427.58065470264 136.286966211061 32.6120532634936
vertex -427.58065470264 136.286966211061 38.1120423141203
vertex -427.58065470264 156.286926395158 38.1120423141203
endloop
endfacet
facet normal -1.0 0.0 0.0
outer loop
vertex -427.58065470264 136.286966211061 32.6120532634936
vertex -427.58065470264 156.286926395158 38.1120423141203
vertex -427.58065470264 138.054732808928 31.8798244598589
endloop
endfacet
facet normal -1.0 0.0 0.0
outer loop
vertex -427.58065470264 138.054732808928 31.8798244598589
vertex -427.58065470264 156.286926395158 38.1120423141203
vertex -427.58065470264 138.786961234073 30.1120582404814
endloop
endfacet
facet normal -1.0 0.0 0.0
outer loop
vertex -427.58065470264 138.786961234073 30.1120582404814
vertex -427.58065470264 156.286926395158 38.1120423141203
vertex -427.58065470264 152.942732507448 33.1231518510066
endloop
endfacet
facet normal -1.0 0.0 0.0
outer loop
vertex -427.58065470264 138.786961234073 30.1120582404814
vertex -427.58065470264 152.942732507448 33.1231518510066
vertex -427.58065470264 152.007135242681 31.5026354554377
endloop
endfacet
facet normal -1.0 0.0 0.0
outer loop
vertex -427.58065470264 138.786961234073 30.1120582404814
vertex -427.58065470264 152.007135242681 31.5026354554377
vertex -427.58065470264 151.811634821157 29.6416790667258
endloop
endfacet
facet normal -1.0 0.0 0.0
outer loop
vertex -427.58065470264 152.942732507448 33.1231518510066
vertex -427.58065470264 156.286926395158 38.1120423141203
vertex -427.58065470264 154.456629926424 34.2230498913012
endloop
endfacet
facet normal -1.0 0.0 0.0
outer loop
vertex -427.58065470264 154.456629926424 34.2230498913012
vertex -427.58065470264 156.286926395158 38.1120423141203
vertex -427.58065470264 156.286926395158 34.6120492819033
endloop
endfacet
facet normal -1.0 0.0 0.0
outer loop
vertex -427.58065470264 156.286926395158 34.6120492819033
vertex -427.58065470264 156.286926395158 38.1120423141203
vertex -427.58065470264 158.2014216368 37.8795422735892
endloop
endfacet
facet normal -1.0 0.0 0.0
outer loop
vertex -427.58065470264 156.286926395158 34.6120492819033
vertex -427.58065470264 158.2014216368 37.8795422735892
vertex -427.58065470264 158.117222863893 34.2230498913012
endloop
endfacet
facet normal -1.0 0.0 0.0
outer loop
vertex -427.58065470264 158.117222863893 34.2230498913012
vertex -427.58065470264 158.2014216368 37.8795422735892
vertex -427.58065470264 159.631120282869 33.1231518510066
endloop
endfacet
facet normal -1.0 0.0 0.0
outer loop
vertex -427.58065470264 159.631120282869 33.1231518510066
vertex -427.58065470264 158.2014216368 37.8795422735892
vertex -427.58065470264 160.004719692926 37.1956435504637
endloop
endfacet
facet normal -1.0 0.0 0.0
outer loop
vertex -427.58065470264 159.631120282869 33.1231518510066
vertex -427.58065470264 160.004719692926 37.1956435504637
vertex -427.58065470264 160.566717547636 31.5026354554377
endloop
endfacet
facet normal -1.0 0.0 0.0
outer loop
vertex -427.58065470264 160.566717547636 31.5026354554377
vertex -427.58065470264 160.004719692926 37.1956435504637
vertex -427.58065470264 161.591915387373 36.1001465860091
endloop
endfacet
facet normal -1.0 0.0 0.0
outer loop
vertex -427.58065470264 160.566717547636 31.5026354554377
vertex -427.58065470264 161.591915387373 36.1001465860091
vertex -427.58065470264 160.76221796916 29.6416790667258
endloop
endfacet
facet normal -1.0 0.0 0.0
outer loop
vertex -427.58065470264 128.345311910371 30.1120582404814
vertex -427.58065470264 128.286982137422 22.1120741668425
vertex -427.58065470264 128.286982137422 30.1120582404814
endloop
endfacet
facet normal -1.0 0.0 0.0
outer loop
vertex -427.58065470264 128.286982137422 22.1120741668425
vertex -427.58065470264 128.345311910371 30.1120582404814
vertex -427.58065470264 136.286966211061 27.6120632174693
endloop
endfacet
facet normal -1.0 0.0 0.0
outer loop
vertex -427.58065470264 128.286982137422 22.1120741668425
vertex -427.58065470264 136.286966211061 27.6120632174693
vertex -427.58065470264 164.286910468797 22.1120741668425
endloop
endfacet
facet normal -1.0 0.0 0.0
outer loop
vertex -427.58065470264 136.286966211061 27.6120632174693
vertex -427.58065470264 128.345311910371 30.1120582404814
vertex -427.58065470264 134.519199613194 28.3442920211039
endloop
endfacet
facet normal -1.0 0.0 0.0
outer loop
vertex -427.58065470264 134.519199613194 28.3442920211039
vertex -427.58065470264 128.345311910371 30.1120582404814
vertex -427.58065470264 128.806851083498 32.9488521400176
endloop
endfacet
facet normal -1.0 0.0 0.0
outer loop
vertex -427.58065470264 134.519199613194 28.3442920211039
vertex -427.58065470264 128.806851083498 32.9488521400176
vertex -427.58065470264 129.703109664182 34.6565498057089
endloop
endfacet
facet normal -1.0 0.0 0.0
outer loop
vertex -427.58065470264 134.519199613194 28.3442920211039
vertex -427.58065470264 129.703109664182 34.6565498057089
vertex -427.58065470264 130.981996900301 36.1001465860091
endloop
endfacet
facet normal -1.0 0.0 0.0
outer loop
vertex -427.58065470264 134.519199613194 28.3442920211039
vertex -427.58065470264 130.981996900301 36.1001465860091
vertex -427.58065470264 133.786971188049 30.1120582404814
endloop
endfacet
facet normal -1.0 0.0 0.0
outer loop
vertex -427.58065470264 133.786971188049 30.1120582404814
vertex -427.58065470264 130.981996900301 36.1001465860091
vertex -427.58065470264 132.569193351726 37.1956435504637
endloop
endfacet
facet normal -1.0 0.0 0.0
outer loop
vertex -427.58065470264 164.286910468797 22.1120741668425
vertex -427.58065470264 136.286966211061 27.6120632174693
vertex -427.58065470264 138.054732808928 28.3442920211039
endloop
endfacet
facet normal -1.0 0.0 0.0
outer loop
vertex -427.58065470264 164.286910468797 22.1120741668425
vertex -427.58065470264 138.054732808928 28.3442920211039
vertex -427.58065470264 138.786961234073 30.1120582404814
endloop
endfacet
facet normal -1.0 0.0 0.0
outer loop
vertex -427.58065470264 164.286910468797 22.1120741668425
vertex -427.58065470264 138.786961234073 30.1120582404814
vertex -427.58065470264 155.351327616434 25.7104070964537
endloop
endfacet
facet normal -1.0 0.0 0.0
outer loop
vertex -427.58065470264 155.351327616434 25.7104070964537
vertex -427.58065470264 138.786961234073 30.1120582404814
vertex -427.58065470264 153.641931289892 26.4714851263247
endloop
endfacet
facet normal -1.0 0.0 0.0
outer loop
vertex -427.58065470264 153.641931289892 26.4714851263247
vertex -427.58065470264 138.786961234073 30.1120582404814
vertex -427.58065470264 152.389833540182 27.8620627197705
endloop
endfacet
facet normal -1.0 0.0 0.0
outer loop
vertex -427.58065470264 152.389833540182 27.8620627197705
vertex -427.58065470264 138.786961234073 30.1120582404814
vertex -427.58065470264 151.811634821157 29.6416790667258
endloop
endfacet
facet normal -1.0 0.0 0.0
outer loop
vertex -427.58065470264 164.286910468797 22.1120741668425
vertex -427.58065470264 155.351327616434 25.7104070964537
vertex -427.58065470264 157.222525173883 25.7104070964537
endloop
endfacet
facet normal -1.0 0.0 0.0
outer loop
vertex -427.58065470264 164.286910468797 22.1120741668425
vertex -427.58065470264 157.222525173883 25.7104070964537
vertex -427.58065470264 158.931921500425 26.4714851263247
endloop
endfacet
facet normal -1.0 0.0 0.0
outer loop
vertex -427.58065470264 164.286910468797 22.1120741668425
vertex -427.58065470264 158.931921500425 26.4714851263247
vertex -427.58065470264 160.184019250135 27.8620627197705
endloop
endfacet
facet normal -1.0 0.0 0.0
outer loop
vertex -427.58065470264 164.286910468797 22.1120741668425
vertex -427.58065470264 160.184019250135 27.8620627197705
vertex -427.58065470264 160.76221796916 29.6416790667258
endloop
endfacet
facet normal -1.0 0.0 0.0
outer loop
vertex -427.58065470264 164.286910468797 22.1120741668425
vertex -427.58065470264 160.76221796916 29.6416790667258
vertex -427.58065470264 161.591915387373 36.1001465860091
endloop
endfacet
facet normal -1.0 0.0 0.0
outer loop
vertex -427.58065470264 164.286910468797 22.1120741668425
vertex -427.58065470264 161.591915387373 36.1001465860091
vertex -427.58065470264 162.870814735155 34.6565498057089
endloop
endfacet
facet normal -1.0 0.0 0.0
outer loop
vertex -427.58065470264 164.286910468797 22.1120741668425
vertex -427.58065470264 162.870814735155 34.6565498057089
vertex -427.58065470264 163.767011243562 32.9488521400176
endloop
endfacet
facet normal -1.0 0.0 0.0
outer loop
vertex -427.58065470264 164.286910468797 22.1120741668425
vertex -427.58065470264 163.767011243562 32.9488521400176
vertex -427.58065470264 164.228610975008 30.1120582404814
endloop
endfacet
facet normal -1.0 0.0 0.0
outer loop
vertex -427.58065470264 164.228610975008 30.1120582404814
vertex -427.58065470264 163.767011243562 32.9488521400176
vertex -427.58065470264 164.228610975008 31.0763457658968
endloop
endfacet
facet normal -1.0 0.0 0.0
outer loop
vertex -427.58065470264 164.286910468797 22.1120741668425
vertex -427.58065470264 164.228610975008 30.1120582404814
vertex -427.58065470264 164.286910468797 30.1120582404814
endloop
endfacet
facet normal 0.0 -0.707106781186548 0.707106781186548
outer loop
vertex -423.580662665821 128.286982137422 30.1120582404814
vertex -427.58065470264 128.286982137422 22.1120741668425
vertex -423.580662665821 128.286982137422 22.1120741668425
endloop
endfacet
facet normal 0.0 -1.0 0.0
outer loop
vertex -427.58065470264 128.286982137422 22.1120741668425
vertex -423.580662665821 128.286982137422 30.1120582404814
vertex -427.58065470264 128.286982137422 30.1120582404814
endloop
endfacet
facet normal 1.0 0.0 0.0
outer loop
vertex -423.580662665821 145.226168936948 22.1120741668425
vertex -423.580662665821 128.286982137422 30.1120582404814
vertex -423.580662665821 128.286982137422 22.1120741668425
endloop
endfacet
facet normal 1.0 0.0 0.0
outer loop
vertex -423.580662665821 128.286982137422 30.1120582404814
vertex -423.580662665821 145.226168936948 22.1120741668425
vertex -423.580662665821 128.345311910371 30.1120582404814
endloop
endfacet
facet normal 1.0 0.0 0.0
outer loop
vertex -423.580662665821 128.345311910371 30.1120582404814
vertex -423.580662665821 145.226168936948 22.1120741668425
vertex -423.580662665821 128.345311910371 31.0763457658968
endloop
endfacet
facet normal 1.0 0.0 0.0
outer loop
vertex -423.580662665821 128.345311910371 31.0763457658968
vertex -423.580662665821 145.226168936948 22.1120741668425
vertex -423.580662665821 134.519199613194 28.3442920211039
endloop
endfacet
facet normal 1.0 0.0 0.0
outer loop
vertex -423.580662665821 128.345311910371 31.0763457658968
vertex -423.580662665821 134.519199613194 28.3442920211039
vertex -423.580662665821 128.806851083498 32.9488521400176
endloop
endfacet
facet normal 1.0 0.0 0.0
outer loop
vertex -423.580662665821 128.806851083498 32.9488521400176
vertex -423.580662665821 134.519199613194 28.3442920211039
vertex -423.580662665821 129.703109664182 34.6565498057089
endloop
endfacet
facet normal 1.0 0.0 0.0
outer loop
vertex -423.580662665821 129.703109664182 34.6565498057089
vertex -423.580662665821 134.519199613194 28.3442920211039
vertex -423.580662665821 130.981996900301 36.1001465860091
endloop
endfacet
facet normal 1.0 0.0 0.0
outer loop
vertex -423.580662665821 130.981996900301 36.1001465860091
vertex -423.580662665821 134.519199613194 28.3442920211039
vertex -423.580662665821 133.786971188049 30.1120582404814
endloop
endfacet
facet normal 1.0 0.0 0.0
outer loop
vertex -423.580662665821 130.981996900301 36.1001465860091
vertex -423.580662665821 133.786971188049 30.1120582404814
vertex -423.580662665821 132.569193351726 37.1956435504637
endloop
endfacet
facet normal 1.0 0.0 0.0
outer loop
vertex -423.580662665821 134.519199613194 28.3442920211039
vertex -423.580662665821 145.226168936948 22.1120741668425
vertex -423.580662665821 136.286966211061 27.6120632174693
endloop
endfacet
facet normal 1.0 0.0 0.0
outer loop
vertex -423.580662665821 136.286966211061 27.6120632174693
vertex -423.580662665821 145.226168936948 22.1120741668425
vertex -423.580662665821 138.054732808928 28.3442920211039
endloop
endfacet
facet normal 1.0 0.0 0.0
outer loop
vertex -423.580662665821 138.054732808928 28.3442920211039
vertex -423.580662665821 145.226168936948 22.1120741668425
vertex -423.580662665821 138.786961234073 30.1120582404814
endloop
endfacet
facet normal 1.0 0.0 0.0
outer loop
vertex -423.580662665821 133.786971188049 30.1120582404814
vertex -423.580662665821 134.372449963252 37.8795422735892
vertex -423.580662665821 132.569193351726 37.1956435504637
endloop
endfacet
facet normal 1.0 0.0 0.0
outer loop
vertex -423.580662665821 134.372449963252 37.8795422735892
vertex -423.580662665821 133.786971188049 30.1120582404814
vertex -423.580662665821 134.519199613194 31.8798244598589
endloop
endfacet
facet normal 1.0 0.0 0.0
outer loop
vertex -423.580662665821 134.372449963252 37.8795422735892
vertex -423.580662665821 134.519199613194 31.8798244598589
vertex -423.580662665821 136.286966211061 38.1120423141203
endloop
endfacet
facet normal 1.0 0.0 0.0
outer loop
vertex -423.580662665821 136.286966211061 38.1120423141203
vertex -423.580662665821 134.519199613194 31.8798244598589
vertex -423.580662665821 136.286966211061 32.6120532634936
endloop
endfacet
facet normal 1.0 0.0 0.0
outer loop
vertex -423.580662665821 136.286966211061 38.1120423141203
vertex -423.580662665821 136.286966211061 32.6120532634936
vertex -423.580662665821 138.054732808928 31.8798244598589
endloop
endfacet
facet normal 1.0 0.0 0.0
outer loop
vertex -423.580662665821 136.286966211061 38.1120423141203
vertex -423.580662665821 138.054732808928 31.8798244598589
vertex -423.580662665821 145.226168936948 38.1120423141203
endloop
endfacet
facet normal 1.0 0.0 0.0
outer loop
vertex -423.580662665821 145.226168936948 38.1120423141203
vertex -423.580662665821 138.054732808928 31.8798244598589
vertex -423.580662665821 138.786961234073 30.1120582404814
endloop
endfacet
facet normal 1.0 0.0 0.0
outer loop
vertex -423.580662665821 145.226168936948 38.1120423141203
vertex -423.580662665821 138.786961234073 30.1120582404814
vertex -423.580662665821 145.226168936948 22.1120741668425
endloop
endfacet
facet normal 1.0 0.0 0.0
outer loop
vertex -423.580662665821 145.226168936948 38.1120423141203
vertex -423.580662665821 145.226168936948 22.1120741668425
vertex -423.580662665821 146.679245365123 24.1120701852522
endloop
endfacet
facet normal 1.0 0.0 0.0
outer loop
vertex -423.580662665821 145.226168936948 38.1120423141203
vertex -423.580662665821 146.679245365123 24.1120701852522
vertex -423.580662665821 146.679245365123 36.1120462957106
endloop
endfacet
facet normal 1.0 0.0 0.0
outer loop
vertex -423.580662665821 146.679245365123 36.1120462957106
vertex -423.580662665821 146.679245365123 24.1120701852522
vertex -423.580662665821 147.699643201093 26.4038657072268
endloop
endfacet
facet normal 1.0 0.0 0.0
outer loop
vertex -423.580662665821 146.679245365123 36.1120462957106
vertex -423.580662665821 147.699643201093 26.4038657072268
vertex -423.580662665821 147.699643201093 33.820251530715
endloop
endfacet
facet normal 1.0 0.0 0.0
outer loop
vertex -423.580662665821 147.699643201093 33.820251530715
vertex -423.580662665821 147.699643201093 26.4038657072268
vertex -423.580662665821 148.221242601137 28.8577205899439
endloop
endfacet
facet normal 1.0 0.0 0.0
outer loop
vertex -423.580662665821 147.699643201093 33.820251530715
vertex -423.580662665821 148.221242601137 28.8577205899439
vertex -423.580662665821 148.221242601137 31.3663958910189
endloop
endfacet
facet normal 6.5239835512314e-17 -0.809018097542319 0.587783733909851
outer loop
vertex -412.580684564567 146.679245365123 24.1120701852522
vertex -423.580662665821 145.226168936948 22.1120741668425
vertex -412.580684564567 145.226168936948 22.1120741668425
endloop
endfacet
facet normal 6.5239835512314e-17 -0.809018097542319 0.587783733909851
outer loop
vertex -423.580662665821 145.226168936948 22.1120741668425
vertex -412.580684564567 146.679245365123 24.1120701852522
vertex -423.580662665821 146.679245365123 24.1120701852522
endloop
endfacet
facet normal -1.0 0.0 0.0
outer loop
vertex -412.580684564567 128.806851083498 32.9488521400176
vertex -412.580684564567 128.345311910371 30.1120582404814
vertex -412.580684564567 128.345311910371 31.0763457658968
endloop
endfacet
facet normal -1.0 0.0 0.0
outer loop
vertex -412.580684564567 134.372449963252 37.8795422735892
vertex -412.580684564567 133.786971188049 30.1120582404814
vertex -412.580684564567 132.569193351726 37.1956435504637
endloop
endfacet
facet normal -1.0 0.0 0.0
outer loop
vertex -412.580684564567 133.786971188049 30.1120582404814
vertex -412.580684564567 134.372449963252 37.8795422735892
vertex -412.580684564567 134.519199613194 31.8798244598589
endloop
endfacet
facet normal -1.0 0.0 0.0
outer loop
vertex -412.580684564567 134.519199613194 31.8798244598589
vertex -412.580684564567 134.372449963252 37.8795422735892
vertex -412.580684564567 136.286966211061 38.1120423141203
endloop
endfacet
facet normal -1.0 0.0 0.0
outer loop
vertex -412.580684564567 134.519199613194 31.8798244598589
vertex -412.580684564567 136.286966211061 38.1120423141203
vertex -412.580684564567 136.286966211061 32.6120532634936
endloop
endfacet
facet normal -1.0 0.0 0.0
outer loop
vertex -412.580684564567 136.286966211061 32.6120532634936
vertex -412.580684564567 136.286966211061 38.1120423141203
vertex -412.580684564567 145.226168936948 38.1120423141203
endloop
endfacet
facet normal -1.0 0.0 0.0
outer loop
vertex -412.580684564567 136.286966211061 32.6120532634936
vertex -412.580684564567 145.226168936948 38.1120423141203
vertex -412.580684564567 138.054732808928 31.8798244598589
endloop
endfacet
facet normal -1.0 0.0 0.0
outer loop
vertex -412.580684564567 138.054732808928 31.8798244598589
vertex -412.580684564567 145.226168936948 38.1120423141203
vertex -412.580684564567 138.786961234073 30.1120582404814
endloop
endfacet
facet normal -1.0 0.0 0.0
outer loop
vertex -412.580684564567 128.345311910371 30.1120582404814
vertex -412.580684564567 128.286982137422 22.1120741668425
vertex -412.580684564567 128.286982137422 30.1120582404814
endloop
endfacet
facet normal -1.0 0.0 0.0
outer loop
vertex -412.580684564567 128.286982137422 22.1120741668425
vertex -412.580684564567 128.345311910371 30.1120582404814
vertex -412.580684564567 145.226168936948 22.1120741668425
endloop
endfacet
facet normal -1.0 0.0 0.0
outer loop
vertex -412.580684564567 145.226168936948 22.1120741668425
vertex -412.580684564567 128.345311910371 30.1120582404814
vertex -412.580684564567 134.519199613194 28.3442920211039
endloop
endfacet
facet normal -1.0 0.0 0.0
outer loop
vertex -412.580684564567 134.519199613194 28.3442920211039
vertex -412.580684564567 128.345311910371 30.1120582404814
vertex -412.580684564567 128.806851083498 32.9488521400176
endloop
endfacet
facet normal -1.0 0.0 0.0
outer loop
vertex -412.580684564567 134.519199613194 28.3442920211039
vertex -412.580684564567 128.806851083498 32.9488521400176
vertex -412.580684564567 129.703109664182 34.6565498057089
endloop
endfacet
facet normal -1.0 0.0 0.0
outer loop
vertex -412.580684564567 134.519199613194 28.3442920211039
vertex -412.580684564567 129.703109664182 34.6565498057089
vertex -412.580684564567 130.981996900301 36.1001465860091
endloop
endfacet
facet normal -1.0 0.0 0.0
outer loop
vertex -412.580684564567 134.519199613194 28.3442920211039
vertex -412.580684564567 130.981996900301 36.1001465860091
vertex -412.580684564567 133.786971188049 30.1120582404814
endloop
endfacet
facet normal -1.0 0.0 0.0
outer loop
vertex -412.580684564567 133.786971188049 30.1120582404814
vertex -412.580684564567 130.981996900301 36.1001465860091
vertex -412.580684564567 132.569193351726 37.1956435504637
endloop
endfacet
facet normal -1.0 0.0 0.0
outer loop
vertex -412.580684564567 145.226168936948 22.1120741668425
vertex -412.580684564567 134.519199613194 28.3442920211039
vertex -412.580684564567 136.286966211061 27.6120632174693
endloop
endfacet
facet normal -1.0 0.0 0.0
outer loop
vertex -412.580684564567 145.226168936948 22.1120741668425
vertex -412.580684564567 136.286966211061 27.6120632174693
vertex -412.580684564567 138.054732808928 28.3442920211039
endloop
endfacet
facet normal -1.0 0.0 0.0
outer loop
vertex -412.580684564567 145.226168936948 22.1120741668425
vertex -412.580684564567 138.054732808928 28.3442920211039
vertex -412.580684564567 138.786961234073 30.1120582404814
endloop
endfacet
facet normal -1.0 0.0 0.0
outer loop
vertex -412.580684564567 145.226168936948 22.1120741668425
vertex -412.580684564567 138.786961234073 30.1120582404814
vertex -412.580684564567 145.226168936948 38.1120423141203
endloop
endfacet
facet normal -1.0 0.0 0.0
outer loop
vertex -412.580684564567 145.226168936948 22.1120741668425
vertex -412.580684564567 145.226168936948 38.1120423141203
vertex -412.580684564567 146.679245365123 36.1120462957106
endloop
endfacet
facet normal -1.0 0.0 0.0
outer loop
vertex -412.580684564567 145.226168936948 22.1120741668425
vertex -412.580684564567 146.679245365123 36.1120462957106
vertex -412.580684564567 146.679245365123 24.1120701852522
endloop
endfacet
facet normal -1.0 0.0 0.0
outer loop
vertex -412.580684564567 146.679245365123 24.1120701852522
vertex -412.580684564567 146.679245365123 36.1120462957106
vertex -412.580684564567 147.699643201093 33.820251530715
endloop
endfacet
facet normal -1.0 0.0 0.0
outer loop
vertex -412.580684564567 146.679245365123 24.1120701852522
vertex -412.580684564567 147.699643201093 33.820251530715
vertex -412.580684564567 147.699643201093 26.4038657072268
endloop
endfacet
facet normal -1.0 0.0 0.0
outer loop
vertex -412.580684564567 147.699643201093 26.4038657072268
vertex -412.580684564567 147.699643201093 33.820251530715
vertex -412.580684564567 148.221242601137 31.3663958910189
endloop
endfacet
facet normal -1.0 0.0 0.0
outer loop
vertex -412.580684564567 147.699643201093 26.4038657072268
vertex -412.580684564567 148.221242601137 31.3663958910189
vertex -412.580684564567 148.221242601137 28.8577205899439
endloop
endfacet
facet normal 0.0 0.0 1.0
outer loop
vertex -408.580692527748 128.286982137422 30.1120582404814
vertex -412.580684564567 128.345311910371 30.1120582404814
vertex -412.580684564567 128.286982137422 30.1120582404814
endloop
endfacet
facet normal 0.0 0.0 1.0
outer loop
vertex -412.580684564567 128.345311910371 30.1120582404814
vertex -408.580692527748 128.286982137422 30.1120582404814
vertex -408.580692527748 128.345311910371 30.1120582404814
endloop
endfacet
facet normal 3.00851727433154e-20 -0.992708637317554 0.120538630302177
outer loop
vertex -408.580692527748 128.345311910371 31.0763457658968
vertex -412.580684564567 128.345311910371 30.1120582404814
vertex -408.580692527748 128.345311910371 30.1120582404814
endloop
endfacet
facet normal 0.0 -1.0 0.0
outer loop
vertex -412.580684564567 128.345311910371 30.1120582404814
vertex -408.580692527748 128.345311910371 31.0763457658968
vertex -412.580684564567 128.345311910371 31.0763457658968
endloop
endfacet
facet normal -1.63597222908727e-19 -0.935016384106175 0.354604514146412
outer loop
vertex -408.580692527748 128.806851083498 32.9488521400176
vertex -412.580684564567 128.345311910371 31.0763457658968
vertex -408.580692527748 128.345311910371 31.0763457658968
endloop
endfacet
facet normal 3.00851727433154e-20 -0.992708637317554 0.120538630302177
outer loop
vertex -412.580684564567 128.345311910371 31.0763457658968
vertex -408.580692527748 128.806851083498 32.9488521400176
vertex -412.580684564567 128.806851083498 32.9488521400176
endloop
endfacet
facet normal 5.58533399925559e-19 -0.822988285209662 0.568058344193323
outer loop
vertex -408.580692527748 129.703109664182 34.6565498057089
vertex -412.580684564567 128.806851083498 32.9488521400176
vertex -408.580692527748 128.806851083498 32.9488521400176
endloop
endfacet
facet normal -1.63597222908727e-19 -0.935016384106175 0.354604514146412
outer loop
vertex -412.580684564567 128.806851083498 32.9488521400176
vertex -408.580692527748 129.703109664182 34.6565498057089
vertex -412.580684564567 129.703109664182 34.6565498057089
endloop
endfacet
facet normal 7.52217855554898e-19 -0.663116228706648 0.748516444192025
outer loop
vertex -408.580692527748 130.981996900301 36.1001465860091
vertex -412.580684564567 129.703109664182 34.6565498057089
vertex -408.580692527748 129.703109664182 34.6565498057089
endloop
endfacet
facet normal 5.58533399925559e-19 -0.822988285209662 0.568058344193323
outer loop
vertex -412.580684564567 129.703109664182 34.6565498057089
vertex -408.580692527748 130.981996900301 36.1001465860091
vertex -412.580684564567 130.981996900301 36.1001465860091
endloop
endfacet
facet normal 7.52217855554898e-19 -0.663116228706648 0.748516444192025
outer loop
vertex -408.580692527748 130.981996900301 36.1001465860091
vertex -412.580684564567 132.569193351726 37.1956435504637
vertex -412.580684564567 130.981996900301 36.1001465860091
endloop
endfacet
facet normal -9.94362183250805e-19 -0.46471371022949 0.885460991531949
outer loop
vertex -412.580684564567 132.569193351726 37.1956435504637
vertex -408.580692527748 130.981996900301 36.1001465860091
vertex -408.580692527748 132.569193351726 37.1956435504637
endloop
endfacet
facet normal -9.94362183250805e-19 -0.46471371022949 0.885460991531949
outer loop
vertex -408.580692527748 132.569193351726 37.1956435504637
vertex -412.580684564567 134.372449963252 37.8795422735892
vertex -412.580684564567 132.569193351726 37.1956435504637
endloop
endfacet
facet normal -9.94363567245388e-19 -0.23932780444029 0.970938825066642
outer loop
vertex -412.580684564567 134.372449963252 37.8795422735892
vertex -408.580692527748 132.569193351726 37.1956435504637
vertex -408.580692527748 134.372449963252 37.8795422735892
endloop
endfacet
facet normal -9.94363567245388e-19 -0.23932780444029 0.970938825066642
outer loop
vertex -408.580692527748 134.372449963252 37.8795422735892
vertex -412.580684564567 136.286966211061 38.1120423141203
vertex -412.580684564567 134.372449963252 37.8795422735892
endloop
endfacet
facet normal 0.0 -0.060387663748589 0.998174999720484
outer loop
vertex -412.580684564567 136.286966211061 38.1120423141203
vertex -408.580692527748 134.372449963252 37.8795422735892
vertex -408.580692527748 136.286966211061 38.1120423141203
endloop
endfacet
facet normal 0.0 -0.060387663748589 0.998174999720484
outer loop
vertex -408.580692527748 136.286966211061 38.1120423141203
vertex -412.580684564567 145.226168936948 38.1120423141203
vertex -412.580684564567 136.286966211061 38.1120423141203
endloop
endfacet
facet normal 0.0 -0.060387663748589 0.998174999720484
outer loop
vertex -423.580662665821 136.286966211061 38.1120423141203
vertex -427.58065470264 156.286926395158 38.1120423141203
vertex -427.58065470264 136.286966211061 38.1120423141203
endloop
endfacet
facet normal 0.0 0.0603883191011241 0.998174960072702
outer loop
vertex -427.58065470264 156.286926395158 38.1120423141203
vertex -423.580662665821 136.286966211061 38.1120423141203
vertex -423.580662665821 145.226168936948 38.1120423141203
endloop
endfacet
facet normal 0.0 0.0603883191011241 0.998174960072702
outer loop
vertex -427.58065470264 156.286926395158 38.1120423141203
vertex -423.580662665821 145.226168936948 38.1120423141203
vertex -408.580692527748 156.286926395158 38.1120423141203
endloop
endfacet
facet normal 0.0 0.0603883191011241 0.998174960072702
outer loop
vertex -408.580692527748 156.286926395158 38.1120423141203
vertex -423.580662665821 145.226168936948 38.1120423141203
vertex -412.580684564567 145.226168936948 38.1120423141203
endloop
endfacet
facet normal 0.0 0.0603883191011241 0.998174960072702
outer loop
vertex -408.580692527748 156.286926395158 38.1120423141203
vertex -412.580684564567 145.226168936948 38.1120423141203
vertex -408.580692527748 136.286966211061 38.1120423141203
endloop
endfacet
facet normal 0.0 0.0603883191011241 0.998174960072702
outer loop
vertex -408.580692527748 156.286926395158 38.1120423141203
vertex -427.58065470264 158.2014216368 37.8795422735892
vertex -427.58065470264 156.286926395158 38.1120423141203
endloop
endfacet
facet normal 0.0 0.23932474248713 0.970939579805803
outer loop
vertex -427.58065470264 158.2014216368 37.8795422735892
vertex -408.580692527748 156.286926395158 38.1120423141203
vertex -408.580692527748 158.2014216368 37.8795422735892
endloop
endfacet
facet normal 0.0 0.23932474248713 0.970939579805803
outer loop
vertex -408.580692527748 158.2014216368 37.8795422735892
vertex -427.58065470264 160.004719692926 37.1956435504637
vertex -427.58065470264 158.2014216368 37.8795422735892
endloop
endfacet
facet normal 0.0 0.464710435199707 0.885462710347815
outer loop
vertex -427.58065470264 160.004719692926 37.1956435504637
vertex -408.580692527748 158.2014216368 37.8795422735892
vertex -408.580692527748 160.004719692926 37.1956435504637
endloop
endfacet
facet normal 0.0 0.464710435199707 0.885462710347815
outer loop
vertex -408.580692527748 160.004719692926 37.1956435504637
vertex -427.58065470264 161.591915387373 36.1001465860091
vertex -427.58065470264 160.004719692926 37.1956435504637
endloop
endfacet
facet normal 0.0 0.663114552883372 0.748517928812854
outer loop
vertex -427.58065470264 161.591915387373 36.1001465860091
vertex -408.580692527748 160.004719692926 37.1956435504637
vertex -408.580692527748 161.591915387373 36.1001465860091
endloop
endfacet
facet normal 0.0 0.663114552883372 0.748517928812854
outer loop
vertex -427.58065470264 161.591915387373 36.1001465860091
vertex -408.580692527748 162.870814735155 34.6565498057089
vertex -427.58065470264 162.870814735155 34.6565498057089
endloop
endfacet
facet normal -3.42873715740309e-20 0.82299504456379 0.568048551290684
outer loop
vertex -408.580692527748 162.870814735155 34.6565498057089
vertex -427.58065470264 161.591915387373 36.1001465860091
vertex -408.580692527748 161.591915387373 36.1001465860091
endloop
endfacet
facet normal -3.42873715740309e-20 0.82299504456379 0.568048551290684
outer loop
vertex -427.58065470264 162.870814735155 34.6565498057089
vertex -408.580692527748 163.767011243562 32.9488521400176
vertex -427.58065470264 163.767011243562 32.9488521400176
endloop
endfacet
facet normal -3.42871743880489e-20 0.935016031399952 0.354605444156014
outer loop
vertex -408.580692527748 163.767011243562 32.9488521400176
vertex -427.58065470264 162.870814735155 34.6565498057089
vertex -408.580692527748 162.870814735155 34.6565498057089
endloop
endfacet
facet normal -3.42871743880489e-20 0.935016031399952 0.354605444156014
outer loop
vertex -427.58065470264 163.767011243562 32.9488521400176
vertex -408.580692527748 164.228610975008 31.0763457658968
vertex -427.58065470264 164.228610975008 31.0763457658968
endloop
endfacet
facet normal 0.0 0.992706799694918 0.120553763273794
outer loop
vertex -408.580692527748 164.228610975008 31.0763457658968
vertex -427.58065470264 163.767011243562 32.9488521400176
vertex -408.580692527748 163.767011243562 32.9488521400176
endloop
endfacet
facet normal 0.0 0.992706799694918 0.120553763273794
outer loop
vertex -427.58065470264 164.228610975008 31.0763457658968
vertex -408.580692527748 164.228610975008 30.1120582404814
vertex -427.58065470264 164.228610975008 30.1120582404814
endloop
endfacet
facet normal 0.0 0.707106781186548 0.707106781186548
outer loop
vertex -408.580692527748 164.228610975008 30.1120582404814
vertex -427.58065470264 164.228610975008 31.0763457658968
vertex -408.580692527748 164.228610975008 31.0763457658968
endloop
endfacet
facet normal 0.0 0.707106781186548 0.707106781186548
outer loop
vertex -408.580692527748 164.228610975008 30.1120582404814
vertex -427.58065470264 164.286910468797 30.1120582404814
vertex -427.58065470264 164.228610975008 30.1120582404814
endloop
endfacet
facet normal 0.0 0.707106781186548 0.707106781186548
outer loop
vertex -427.58065470264 164.286910468797 30.1120582404814
vertex -408.580692527748 164.228610975008 30.1120582404814
vertex -408.580692527748 164.286910468797 30.1120582404814
endloop
endfacet
facet normal 0.0 -0.406739207974094 0.913544315671991
outer loop
vertex -408.580692527748 157.222525173883 25.7104070964537
vertex -427.58065470264 158.931921500425 26.4714851263247
vertex -427.58065470264 157.222525173883 25.7104070964537
endloop
endfacet
facet normal 0.0 -0.406739207974094 0.913544315671991
outer loop
vertex -427.58065470264 158.931921500425 26.4714851263247
vertex -408.580692527748 157.222525173883 25.7104070964537
vertex -408.580692527748 158.931921500425 26.4714851263247
endloop
endfacet
facet normal 0.0 0.0 1.0
outer loop
vertex -408.580692527748 155.351327616434 25.7104070964537
vertex -427.58065470264 157.222525173883 25.7104070964537
vertex -427.58065470264 155.351327616434 25.7104070964537
endloop
endfacet
facet normal 0.0 0.0 1.0
outer loop
vertex -427.58065470264 157.222525173883 25.7104070964537
vertex -408.580692527748 155.351327616434 25.7104070964537
vertex -408.580692527748 157.222525173883 25.7104070964537
endloop
endfacet
facet normal 2.29432278316842e-19 -0.74314055747103 0.669135346429739
outer loop
vertex -408.580692527748 160.184019250135 27.8620627197705
vertex -427.58065470264 158.931921500425 26.4714851263247
vertex -408.580692527748 158.931921500425 26.4714851263247
endloop
endfacet
facet normal 2.29432278316842e-19 -0.74314055747103 0.669135346429739
outer loop
vertex -427.58065470264 158.931921500425 26.4714851263247
vertex -408.580692527748 160.184019250135 27.8620627197705
vertex -427.58065470264 160.184019250135 27.8620627197705
endloop
endfacet
facet normal 0.0 -0.951061806605963 0.309000711998212
outer loop
vertex -408.580692527748 160.76221796916 29.6416790667258
vertex -427.58065470264 160.184019250135 27.8620627197705
vertex -408.580692527748 160.184019250135 27.8620627197705
endloop
endfacet
facet normal 0.0 -0.951061806605963 0.309000711998212
outer loop
vertex -427.58065470264 160.184019250135 27.8620627197705
vertex -408.580692527748 160.76221796916 29.6416790667258
vertex -427.58065470264 160.76221796916 29.6416790667258
endloop
endfacet
facet normal 0.0 -0.99452711507079 -0.104478789182164
outer loop
vertex -408.580692527748 160.566717547636 31.5026354554377
vertex -427.58065470264 160.76221796916 29.6416790667258
vertex -408.580692527748 160.76221796916 29.6416790667258
endloop
endfacet
facet normal 0.0 -0.99452711507079 -0.104478789182164
outer loop
vertex -427.58065470264 160.76221796916 29.6416790667258
vertex -408.580692527748 160.566717547636 31.5026354554377
vertex -427.58065470264 160.566717547636 31.5026354554377
endloop
endfacet
facet normal 0.0 -0.866027327345342 -0.499996668279983
outer loop
vertex -408.580692527748 159.631120282869 33.1231518510066
vertex -427.58065470264 160.566717547636 31.5026354554377
vertex -408.580692527748 160.566717547636 31.5026354554377
endloop
endfacet
facet normal 0.0 -0.866027327345342 -0.499996668279983
outer loop
vertex -427.58065470264 160.566717547636 31.5026354554377
vertex -408.580692527748 159.631120282869 33.1231518510066
vertex -427.58065470264 159.631120282869 33.1231518510066
endloop
endfacet
facet normal 6.85890598834732e-19 -0.587780769106037 -0.809020251581576
outer loop
vertex -408.580692527748 159.631120282869 33.1231518510066
vertex -427.58065470264 158.117222863893 34.2230498913012
vertex -427.58065470264 159.631120282869 33.1231518510066
endloop
endfacet
facet normal 6.85890598834732e-19 -0.587780769106037 -0.809020251581576
outer loop
vertex -427.58065470264 158.117222863893 34.2230498913012
vertex -408.580692527748 159.631120282869 33.1231518510066
vertex -408.580692527748 158.117222863893 34.2230498913012
endloop
endfacet
facet normal 0.0 -0.207890146950927 -0.978152179776093
outer loop
vertex -408.580692527748 158.117222863893 34.2230498913012
vertex -427.58065470264 156.286926395158 34.6120492819033
vertex -427.58065470264 158.117222863893 34.2230498913012
endloop
endfacet
facet normal 0.0 -0.207890146950927 -0.978152179776093
outer loop
vertex -427.58065470264 156.286926395158 34.6120492819033
vertex -408.580692527748 158.117222863893 34.2230498913012
vertex -408.580692527748 156.286926395158 34.6120492819033
endloop
endfacet
facet normal 0.0 0.207890146950927 -0.978152179776093
outer loop
vertex -408.580692527748 156.286926395158 34.6120492819033
vertex -427.58065470264 154.456629926424 34.2230498913012
vertex -427.58065470264 156.286926395158 34.6120492819033
endloop
endfacet
facet normal 0.0 0.207890146950927 -0.978152179776093
outer loop
vertex -427.58065470264 154.456629926424 34.2230498913012
vertex -408.580692527748 156.286926395158 34.6120492819033
vertex -408.580692527748 154.456629926424 34.2230498913012
endloop
endfacet
facet normal 6.85890598834732e-19 0.587780769106037 -0.809020251581576
outer loop
vertex -408.580692527748 154.456629926424 34.2230498913012
vertex -427.58065470264 152.942732507448 33.1231518510066
vertex -427.58065470264 154.456629926424 34.2230498913012
endloop
endfacet
facet normal 6.85890598834732e-19 0.587780769106037 -0.809020251581576
outer loop
vertex -427.58065470264 152.942732507448 33.1231518510066
vertex -408.580692527748 154.456629926424 34.2230498913012
vertex -408.580692527748 152.942732507448 33.1231518510066
endloop
endfacet
facet normal 0.0 0.866027327345342 -0.499996668279983
outer loop
vertex -427.58065470264 152.942732507448 33.1231518510066
vertex -408.580692527748 152.007135242681 31.5026354554377
vertex -427.58065470264 152.007135242681 31.5026354554377
endloop
endfacet
facet normal 0.0 0.866027327345342 -0.499996668279983
outer loop
vertex -408.580692527748 152.007135242681 31.5026354554377
vertex -427.58065470264 152.942732507448 33.1231518510066
vertex -408.580692527748 152.942732507448 33.1231518510066
endloop
endfacet
facet normal 0.0 0.99452711507079 -0.104478789182164
outer loop
vertex -427.58065470264 152.007135242681 31.5026354554377
vertex -408.580692527748 151.811634821157 29.6416790667258
vertex -427.58065470264 151.811634821157 29.6416790667258
endloop
endfacet
facet normal 0.0 0.99452711507079 -0.104478789182164
outer loop
vertex -408.580692527748 151.811634821157 29.6416790667258
vertex -427.58065470264 152.007135242681 31.5026354554377
vertex -408.580692527748 152.007135242681 31.5026354554377
endloop
endfacet
facet normal 0.0 0.951061806605963 0.309000711998212
outer loop
vertex -427.58065470264 151.811634821157 29.6416790667258
vertex -408.580692527748 152.389833540182 27.8620627197705
vertex -427.58065470264 152.389833540182 27.8620627197705
endloop
endfacet
facet normal 0.0 0.951061806605963 0.309000711998212
outer loop
vertex -408.580692527748 152.389833540182 27.8620627197705
vertex -427.58065470264 151.811634821157 29.6416790667258
vertex -408.580692527748 151.811634821157 29.6416790667258
endloop
endfacet
facet normal 2.29432278316842e-19 0.74314055747103 0.669135346429739
outer loop
vertex -427.58065470264 152.389833540182 27.8620627197705
vertex -408.580692527748 153.641931289892 26.4714851263247
vertex -427.58065470264 153.641931289892 26.4714851263247
endloop
endfacet
facet normal 2.29432278316842e-19 0.74314055747103 0.669135346429739
outer loop
vertex -408.580692527748 153.641931289892 26.4714851263247
vertex -427.58065470264 152.389833540182 27.8620627197705
vertex -408.580692527748 152.389833540182 27.8620627197705
endloop
endfacet
facet normal 0.0 0.406739207974094 0.913544315671991
outer loop
vertex -408.580692527748 153.641931289892 26.4714851263247
vertex -427.58065470264 155.351327616434 25.7104070964537
vertex -427.58065470264 153.641931289892 26.4714851263247
endloop
endfacet
facet normal 0.0 0.406739207974094 0.913544315671991
outer loop
vertex -427.58065470264 155.351327616434 25.7104070964537
vertex -408.580692527748 153.641931289892 26.4714851263247
vertex -408.580692527748 155.351327616434 25.7104070964537
endloop
endfacet
facet normal -1.38600727694421e-18 -0.382681605044796 0.923880289410018
outer loop
vertex -408.580692527748 136.286966211061 27.6120632174693
vertex -412.580684564567 138.054732808928 28.3442920211039
vertex -412.580684564567 136.286966211061 27.6120632174693
endloop
endfacet
facet normal -1.38600727694421e-18 -0.382681605044796 0.923880289410018
outer loop
vertex -412.580684564567 138.054732808928 28.3442920211039
vertex -408.580692527748 136.286966211061 27.6120632174693
vertex -408.580692527748 138.054732808928 28.3442920211039
endloop
endfacet
facet normal -1.38600727694421e-18 0.382681605044796 0.923880289410018
outer loop
vertex -408.580692527748 134.519199613194 28.3442920211039
vertex -412.580684564567 136.286966211061 27.6120632174693
vertex -412.580684564567 134.519199613194 28.3442920211039
endloop
endfacet
facet normal -1.38600727694421e-18 0.382681605044796 0.923880289410018
outer loop
vertex -412.580684564567 136.286966211061 27.6120632174693
vertex -408.580692527748 134.519199613194 28.3442920211039
vertex -408.580692527748 136.286966211061 27.6120632174693
endloop
endfacet
facet normal 1.38600936471045e-18 -0.923880330377473 0.382681506140042
outer loop
vertex -408.580692527748 138.786961234073 30.1120582404814
vertex -412.580684564567 138.054732808928 28.3442920211039
vertex -408.580692527748 138.054732808928 28.3442920211039
endloop
endfacet
facet normal 1.38600936471045e-18 -0.923880330377473 0.382681506140042
outer loop
vertex -412.580684564567 138.054732808928 28.3442920211039
vertex -408.580692527748 138.786961234073 30.1120582404814
vertex -412.580684564567 138.786961234073 30.1120582404814
endloop
endfacet
facet normal -1.38600936471045e-18 -0.923880330377473 -0.382681506140043
outer loop
vertex -408.580692527748 138.054732808928 31.8798244598589
vertex -412.580684564567 138.786961234073 30.1120582404814
vertex -408.580692527748 138.786961234073 30.1120582404814
endloop
endfacet
facet normal -1.38600936471045e-18 -0.923880330377473 -0.382681506140043
outer loop
vertex -412.580684564567 138.786961234073 30.1120582404814
vertex -408.580692527748 138.054732808928 31.8798244598589
vertex -412.580684564567 138.054732808928 31.8798244598589
endloop
endfacet
facet normal 1.38600727694421e-18 -0.382681605044796 -0.923880289410018
outer loop
vertex -408.580692527748 138.054732808928 31.8798244598589
vertex -412.580684564567 136.286966211061 32.6120532634936
vertex -412.580684564567 138.054732808928 31.8798244598589
endloop
endfacet
facet normal 1.38600727694421e-18 -0.382681605044796 -0.923880289410018
outer loop
vertex -412.580684564567 136.286966211061 32.6120532634936
vertex -408.580692527748 138.054732808928 31.8798244598589
vertex -408.580692527748 136.286966211061 32.6120532634936
endloop
endfacet
facet normal 1.38600727694421e-18 0.382681605044796 -0.923880289410018
outer loop
vertex -408.580692527748 136.286966211061 32.6120532634936
vertex -412.580684564567 134.519199613194 31.8798244598589
vertex -412.580684564567 136.286966211061 32.6120532634936
endloop
endfacet
facet normal 1.38600727694421e-18 0.382681605044796 -0.923880289410018
outer loop
vertex -412.580684564567 134.519199613194 31.8798244598589
vertex -408.580692527748 136.286966211061 32.6120532634936
vertex -408.580692527748 134.519199613194 31.8798244598589
endloop
endfacet
facet normal -1.38600936471045e-18 0.923880330377473 -0.382681506140043
outer loop
vertex -412.580684564567 134.519199613194 31.8798244598589
vertex -408.580692527748 133.786971188049 30.1120582404814
vertex -412.580684564567 133.786971188049 30.1120582404814
endloop
endfacet
facet normal -1.38600936471045e-18 0.923880330377473 -0.382681506140043
outer loop
vertex -408.580692527748 133.786971188049 30.1120582404814
vertex -412.580684564567 134.519199613194 31.8798244598589
vertex -408.580692527748 134.519199613194 31.8798244598589
endloop
endfacet
facet normal 1.38600936471045e-18 0.923880330377473 0.382681506140042
outer loop
vertex -412.580684564567 133.786971188049 30.1120582404814
vertex -408.580692527748 134.519199613194 28.3442920211039
vertex -412.580684564567 134.519199613194 28.3442920211039
endloop
endfacet
facet normal 1.38600936471045e-18 0.923880330377473 0.382681506140042
outer loop
vertex -408.580692527748 134.519199613194 28.3442920211039
vertex -412.580684564567 133.786971188049 30.1120582404814
vertex -408.580692527748 133.786971188049 30.1120582404814
endloop
endfacet
facet normal 0.0 -0.23932780444029 0.970938825066642
outer loop
vertex -423.580662665821 134.372449963252 37.8795422735892
vertex -427.58065470264 136.286966211061 38.1120423141203
vertex -427.58065470264 134.372449963252 37.8795422735892
endloop
endfacet
facet normal 0.0 -0.060387663748589 0.998174999720484
outer loop
vertex -427.58065470264 136.286966211061 38.1120423141203
vertex -423.580662665821 134.372449963252 37.8795422735892
vertex -423.580662665821 136.286966211061 38.1120423141203
endloop
endfacet
facet normal 0.0 -0.46471371022949 0.885460991531949
outer loop
vertex -423.580662665821 132.569193351726 37.1956435504637
vertex -427.58065470264 134.372449963252 37.8795422735892
vertex -427.58065470264 132.569193351726 37.1956435504637
endloop
endfacet
facet normal 0.0 -0.23932780444029 0.970938825066642
outer loop
vertex -427.58065470264 134.372449963252 37.8795422735892
vertex -423.580662665821 132.569193351726 37.1956435504637
vertex -423.580662665821 134.372449963252 37.8795422735892
endloop
endfacet
facet normal 0.0 -0.663116228706648 0.748516444192025
outer loop
vertex -423.580662665821 130.981996900301 36.1001465860091
vertex -427.58065470264 132.569193351726 37.1956435504637
vertex -427.58065470264 130.981996900301 36.1001465860091
endloop
endfacet
facet normal 0.0 -0.46471371022949 0.885460991531949
outer loop
vertex -427.58065470264 132.569193351726 37.1956435504637
vertex -423.580662665821 130.981996900301 36.1001465860091
vertex -423.580662665821 132.569193351726 37.1956435504637
endloop
endfacet
facet normal 0.0 -0.663116228706648 0.748516444192025
outer loop
vertex -423.580662665821 130.981996900301 36.1001465860091
vertex -427.58065470264 129.703109664182 34.6565498057089
vertex -423.580662665821 129.703109664182 34.6565498057089
endloop
endfacet
facet normal 0.0 -0.822988285209662 0.568058344193323
outer loop
vertex -427.58065470264 129.703109664182 34.6565498057089
vertex -423.580662665821 130.981996900301 36.1001465860091
vertex -427.58065470264 130.981996900301 36.1001465860091
endloop
endfacet
facet normal 0.0 -0.822988285209662 0.568058344193323
outer loop
vertex -423.580662665821 129.703109664182 34.6565498057089
vertex -427.58065470264 128.806851083498 32.9488521400176
vertex -423.580662665821 128.806851083498 32.9488521400176
endloop
endfacet
facet normal 0.0 -0.935016384106175 0.354604514146412
outer loop
vertex -427.58065470264 128.806851083498 32.9488521400176
vertex -423.580662665821 129.703109664182 34.6565498057089
vertex -427.58065470264 129.703109664182 34.6565498057089
endloop
endfacet
facet normal 0.0 -0.935016384106175 0.354604514146412
outer loop
vertex -423.580662665821 128.806851083498 32.9488521400176
vertex -427.58065470264 128.345311910371 31.0763457658968
vertex -423.580662665821 128.345311910371 31.0763457658968
endloop
endfacet
facet normal 0.0 -0.992708637317554 0.120538630302177
outer loop
vertex -427.58065470264 128.345311910371 31.0763457658968
vertex -423.580662665821 128.806851083498 32.9488521400176
vertex -427.58065470264 128.806851083498 32.9488521400176
endloop
endfacet
facet normal 0.0 -0.992708637317554 0.120538630302177
outer loop
vertex -423.580662665821 128.345311910371 31.0763457658968
vertex -427.58065470264 128.345311910371 30.1120582404814
vertex -423.580662665821 128.345311910371 30.1120582404814
endloop
endfacet
facet normal 0.0 -0.707106781186548 0.707106781186548
outer loop
vertex -427.58065470264 128.345311910371 30.1120582404814
vertex -423.580662665821 128.345311910371 31.0763457658968
vertex -427.58065470264 128.345311910371 31.0763457658968
endloop
endfacet
facet normal 0.0 -0.707106781186548 0.707106781186548
outer loop
vertex -423.580662665821 128.286982137422 30.1120582404814
vertex -427.58065470264 128.345311910371 30.1120582404814
vertex -427.58065470264 128.286982137422 30.1120582404814
endloop
endfacet
facet normal 0.0 -0.707106781186548 0.707106781186548
outer loop
vertex -427.58065470264 128.345311910371 30.1120582404814
vertex -423.580662665821 128.286982137422 30.1120582404814
vertex -423.580662665821 128.345311910371 30.1120582404814
endloop
endfacet
facet normal 0.0 0.923880330377473 0.382681506140042
outer loop
vertex -427.58065470264 133.786971188049 30.1120582404814
vertex -423.580662665821 134.519199613194 28.3442920211039
vertex -427.58065470264 134.519199613194 28.3442920211039
endloop
endfacet
facet normal 0.0 0.923880330377473 0.382681506140042
outer loop
vertex -423.580662665821 134.519199613194 28.3442920211039
vertex -427.58065470264 133.786971188049 30.1120582404814
vertex -423.580662665821 133.786971188049 30.1120582404814
endloop
endfacet
facet normal 0.0 0.382681605044796 0.923880289410018
outer loop
vertex -423.580662665821 134.519199613194 28.3442920211039
vertex -427.58065470264 136.286966211061 27.6120632174693
vertex -427.58065470264 134.519199613194 28.3442920211039
endloop
endfacet
facet normal 0.0 0.382681605044796 0.923880289410018
outer loop
vertex -427.58065470264 136.286966211061 27.6120632174693
vertex -423.580662665821 134.519199613194 28.3442920211039
vertex -423.580662665821 136.286966211061 27.6120632174693
endloop
endfacet
facet normal 0.0 0.923880330377473 -0.382681506140042
outer loop
vertex -427.58065470264 134.519199613194 31.8798244598589
vertex -423.580662665821 133.786971188049 30.1120582404814
vertex -427.58065470264 133.786971188049 30.1120582404814
endloop
endfacet
facet normal 0.0 0.923880330377473 -0.382681506140042
outer loop
vertex -423.580662665821 133.786971188049 30.1120582404814
vertex -427.58065470264 134.519199613194 31.8798244598589
vertex -423.580662665821 134.519199613194 31.8798244598589
endloop
endfacet
facet normal 0.0 0.382681605044796 -0.923880289410018
outer loop
vertex -423.580662665821 136.286966211061 32.6120532634936
vertex -427.58065470264 134.519199613194 31.8798244598589
vertex -427.58065470264 136.286966211061 32.6120532634936
endloop
endfacet
facet normal 0.0 0.382681605044796 -0.923880289410018
outer loop
vertex -427.58065470264 134.519199613194 31.8798244598589
vertex -423.580662665821 136.286966211061 32.6120532634936
vertex -423.580662665821 134.519199613194 31.8798244598589
endloop
endfacet
facet normal 0.0 -0.382681605044796 -0.923880289410018
outer loop
vertex -423.580662665821 138.054732808928 31.8798244598589
vertex -427.58065470264 136.286966211061 32.6120532634936
vertex -427.58065470264 138.054732808928 31.8798244598589
endloop
endfacet
facet normal 0.0 -0.382681605044796 -0.923880289410018
outer loop
vertex -427.58065470264 136.286966211061 32.6120532634936
vertex -423.580662665821 138.054732808928 31.8798244598589
vertex -423.580662665821 136.286966211061 32.6120532634936
endloop
endfacet
facet normal 0.0 -0.923880330377473 -0.382681506140042
outer loop
vertex -423.580662665821 138.054732808928 31.8798244598589
vertex -427.58065470264 138.786961234073 30.1120582404814
vertex -423.580662665821 138.786961234073 30.1120582404814
endloop
endfacet
facet normal 0.0 -0.923880330377473 -0.382681506140042
outer loop
vertex -427.58065470264 138.786961234073 30.1120582404814
vertex -423.580662665821 138.054732808928 31.8798244598589
vertex -427.58065470264 138.054732808928 31.8798244598589
endloop
endfacet
facet normal 0.0 -0.923880330377473 0.382681506140042
outer loop
vertex -423.580662665821 138.786961234073 30.1120582404814
vertex -427.58065470264 138.054732808928 28.3442920211039
vertex -423.580662665821 138.054732808928 28.3442920211039
endloop
endfacet
facet normal 0.0 -0.923880330377473 0.382681506140042
outer loop
vertex -427.58065470264 138.054732808928 28.3442920211039
vertex -423.580662665821 138.786961234073 30.1120582404814
vertex -427.58065470264 138.786961234073 30.1120582404814
endloop
endfacet
facet normal 0.0 -0.382681605044796 0.923880289410018
outer loop
vertex -423.580662665821 136.286966211061 27.6120632174693
vertex -427.58065470264 138.054732808928 28.3442920211039
vertex -427.58065470264 136.286966211061 27.6120632174693
endloop
endfacet
facet normal 0.0 -0.382681605044796 0.923880289410018
outer loop
vertex -427.58065470264 138.054732808928 28.3442920211039
vertex -423.580662665821 136.286966211061 27.6120632174693
vertex -423.580662665821 138.054732808928 28.3442920211039
endloop
endfacet
facet normal 0.0 -0.80901809754232 -0.587783733909851
outer loop
vertex -412.580684564567 145.226168936948 38.1120423141203
vertex -423.580662665821 146.679245365123 36.1120462957106
vertex -412.580684564567 146.679245365123 36.1120462957106
endloop
endfacet
facet normal 0.0 -0.80901809754232 -0.587783733909851
outer loop
vertex -423.580662665821 146.679245365123 36.1120462957106
vertex -412.580684564567 145.226168936948 38.1120423141203
vertex -423.580662665821 145.226168936948 38.1120423141203
endloop
endfacet
facet normal 0.0 -0.913541745015238 -0.406744981670965
outer loop
vertex -412.580684564567 146.679245365123 36.1120462957106
vertex -423.580662665821 147.699643201093 33.820251530715
vertex -412.580684564567 147.699643201093 33.820251530715
endloop
endfacet
facet normal 0.0 -0.913541745015238 -0.406744981670965
outer loop
vertex -423.580662665821 147.699643201093 33.820251530715
vertex -412.580684564567 146.679245365123 36.1120462957106
vertex -423.580662665821 146.679245365123 36.1120462957106
endloop
endfacet
facet normal 0.0 -0.978146280764161 -0.207917900689764
outer loop
vertex -412.580684564567 147.699643201093 33.820251530715
vertex -423.580662665821 148.221242601137 31.3663958910189
vertex -412.580684564567 148.221242601137 31.3663958910189
endloop
endfacet
facet normal 0.0 -0.978146280764161 -0.207917900689764
outer loop
vertex -423.580662665821 148.221242601137 31.3663958910189
vertex -412.580684564567 147.699643201093 33.820251530715
vertex -423.580662665821 147.699643201093 33.820251530715
endloop
endfacet
facet normal 0.0 -1.0 0.0
outer loop
vertex -412.580684564567 148.221242601137 31.3663958910189
vertex -423.580662665821 148.221242601137 28.8577205899439
vertex -412.580684564567 148.221242601137 28.8577205899439
endloop
endfacet
facet normal 0.0 -1.0 0.0
outer loop
vertex -423.580662665821 148.221242601137 28.8577205899439
vertex -412.580684564567 148.221242601137 31.3663958910189
vertex -423.580662665821 148.221242601137 31.3663958910189
endloop
endfacet
facet normal 0.0 -0.978146267719807 0.2079179620567
outer loop
vertex -412.580684564567 148.221242601137 28.8577205899439
vertex -423.580662665821 147.699643201093 26.4038657072268
vertex -412.580684564567 147.699643201093 26.4038657072268
endloop
endfacet
facet normal 0.0 -0.978146267719807 0.2079179620567
outer loop
vertex -423.580662665821 147.699643201093 26.4038657072268
vertex -412.580684564567 148.221242601137 28.8577205899439
vertex -423.580662665821 148.221242601137 28.8577205899439
endloop
endfacet
facet normal 0.0 -0.913541794935945 0.406744869549957
outer loop
vertex -412.580684564567 147.699643201093 26.4038657072268
vertex -423.580662665821 146.679245365123 24.1120701852522
vertex -412.580684564567 146.679245365123 24.1120701852522
endloop
endfacet
facet normal 0.0 -0.913541794935945 0.406744869549957
outer loop
vertex -423.580662665821 146.679245365123 24.1120701852522
vertex -412.580684564567 147.699643201093 26.4038657072268
vertex -423.580662665821 147.699643201093 26.4038657072268
endloop
endfacet
endsolid 3D_02
